<svg width="98" height="32" viewBox="0 0 98 32" fill="none" xmlns="http://www.w3.org/2000/svg">
<path d="M3.25181 31.868C2.55581 31.868 1.96781 31.724 1.48781 31.436C0.839813 31.076 0.515813 30.512 0.515813 29.744C0.515813 29.072 0.731813 28.472 1.16381 27.944C1.64381 27.392 2.19581 27.116 2.81981 27.116C3.27581 27.116 3.67181 27.284 4.00781 27.62C4.29581 27.956 4.43981 28.292 4.43981 28.628C4.43981 29.228 4.21181 29.72 3.75581 30.104C3.37181 30.464 2.93981 30.644 2.45981 30.644C2.00381 30.644 1.60781 30.476 1.27181 30.14C1.41581 30.668 1.90781 30.932 2.74781 30.932C4.01981 30.932 5.53181 30.08 7.28381 28.376C7.93181 27.752 8.62781 26.996 9.37181 26.108C10.0918 25.244 10.8478 24.236 11.6398 23.084C12.1678 22.316 12.6838 21.56 13.1878 20.816C13.6918 20.048 14.2078 19.28 14.7358 18.512C12.9838 15.824 12.1078 13.292 12.1078 10.916C12.1078 9.548 12.4198 8.444 13.0438 7.604C13.6918 6.764 14.5198 6.344 15.5278 6.344C17.3998 6.344 19.3558 7.64 21.3958 10.232C23.6998 7.856 26.0518 5.84 28.4518 4.184C31.6678 1.952 34.3198 0.835998 36.4078 0.835998C37.2478 0.835998 37.6678 1.016 37.6678 1.376C37.6678 1.472 37.6318 1.592 37.5598 1.736C32.1598 11.408 29.1358 17.972 28.4878 21.428C28.4398 21.764 28.3918 22.076 28.3438 22.364C28.3198 22.652 28.3078 22.916 28.3078 23.156C28.3078 24.668 28.9198 25.424 30.1438 25.424C31.3918 25.424 33.1438 23.072 35.3998 18.368C35.4958 18.128 35.6278 17.984 35.7958 17.936H35.8318C35.9278 17.936 35.9758 18.02 35.9758 18.188C35.9758 18.332 35.9158 18.524 35.7958 18.764C35.1238 20.108 34.5838 21.176 34.1758 21.968C33.7918 22.76 33.5278 23.264 33.3838 23.48C32.7118 24.536 32.0398 25.316 31.3678 25.82C30.6958 26.324 30.0358 26.576 29.3878 26.576C28.5718 26.576 27.7918 26.264 27.0478 25.64C26.1118 24.824 25.5958 23.684 25.4998 22.22C24.8518 18.284 23.4238 14.924 21.2158 12.14C20.4478 12.956 19.6318 13.904 18.7678 14.984C17.9278 16.064 17.0278 17.276 16.0678 18.62C17.1718 20.372 18.4318 21.992 19.8478 23.48C21.2878 24.968 22.8838 26.312 24.6358 27.512C24.8038 27.608 24.8878 27.728 24.8878 27.872C24.8878 28.064 24.8158 28.16 24.6718 28.16C24.5998 28.16 24.4918 28.124 24.3478 28.052C23.6758 27.644 22.9798 27.152 22.2598 26.576C21.5398 26.024 20.7838 25.376 19.9918 24.632C19.1038 23.816 18.2758 22.988 17.5078 22.148C16.7638 21.284 16.0678 20.408 15.4198 19.52C13.7878 21.824 12.4918 23.636 11.5318 24.956C10.5958 26.276 9.99581 27.104 9.73181 27.44C7.76381 29.888 6.07181 31.292 4.65581 31.652C4.19981 31.796 3.73181 31.868 3.25181 31.868ZM25.7518 19.664C25.8958 19.04 26.0998 18.392 26.3638 17.72C26.6518 17.024 26.9998 16.316 27.4078 15.596C29.4718 11.924 31.5478 8.564 33.6358 5.516C33.8758 5.18 33.9958 4.88 33.9958 4.616C33.9958 4.304 33.7678 4.148 33.3118 4.148C31.9198 4.148 29.9398 5.036 27.3718 6.812C26.3398 7.532 25.3918 8.264 24.5278 9.008C23.6638 9.728 22.8598 10.46 22.1158 11.204C23.7478 13.652 24.9598 16.472 25.7518 19.664ZM15.4198 17.54C16.3558 16.268 17.2318 15.104 18.0478 14.048C18.8878 12.992 19.6798 12.056 20.4238 11.24C18.9118 9.632 17.5678 8.828 16.3918 8.828C15.6718 8.828 15.1078 9.152 14.6998 9.8C14.2678 10.472 14.0518 11.336 14.0518 12.392C14.0518 14.048 14.5078 15.764 15.4198 17.54ZM33.9998 26.252C34.4558 25.1 35.0558 23.66 35.7998 21.932C36.5678 20.204 37.4318 18.236 38.3918 16.028C38.5838 15.548 38.7638 15.164 38.9318 14.876C39.1238 14.588 39.2918 14.36 39.4358 14.192C39.7478 13.832 40.1678 13.688 40.6958 13.76L41.4518 13.868C41.6198 13.892 41.7638 13.916 41.8838 13.94C42.0278 13.94 42.1478 13.928 42.2438 13.904C41.7638 14.144 41.1998 14.828 40.5518 15.956C39.9278 17.06 39.2318 18.572 38.4638 20.492C38.7278 20.156 39.0638 19.712 39.4718 19.16C39.8798 18.584 40.3958 17.924 41.0198 17.18C41.7158 16.364 42.4358 15.608 43.1798 14.912C43.9238 14.216 44.6438 13.868 45.3398 13.868C45.8918 13.868 46.2878 14.048 46.5278 14.408C46.7678 14.768 46.8878 15.176 46.8878 15.632C46.8878 16.184 46.6718 16.676 46.2398 17.108C45.8078 17.54 45.3878 17.756 44.9798 17.756C44.8118 17.756 44.6318 17.72 44.4398 17.648C44.2718 17.576 44.1878 17.468 44.1878 17.324C44.1878 17.204 44.2118 17.096 44.2598 17C44.3078 16.88 44.3318 16.748 44.3318 16.604C44.3318 16.244 44.1638 16.064 43.8278 16.064C43.7078 16.064 43.5398 16.1 43.3238 16.172C43.1318 16.22 42.8678 16.412 42.5318 16.748C41.8598 17.372 41.1278 18.128 40.3358 19.016C39.5678 19.88 38.8358 20.852 38.1398 21.932C37.4678 23.012 36.9158 24.2 36.4838 25.496C36.3638 25.856 36.0038 26.048 35.4038 26.072C34.5878 26.12 34.1198 26.18 33.9998 26.252ZM49.177 26C47.617 26 46.837 25.148 46.837 23.444C46.837 23.108 46.861 22.76 46.909 22.4C46.981 22.04 47.089 21.68 47.233 21.32C48.505 17.96 49.585 15.224 50.473 13.112H48.133L48.565 12.32H50.797L51.661 9.8C51.973 8.912 52.237 8.384 52.453 8.216C52.621 8.096 53.005 8.036 53.605 8.036L55.153 8.072C54.673 8.48 54.313 8.972 54.073 9.548L52.885 12.32H55.621L55.189 13.112H52.561C52.393 13.496 52.225 13.88 52.057 14.264C51.913 14.648 51.745 15.044 51.553 15.452C51.049 16.556 50.617 17.6 50.257 18.584C49.825 19.712 49.477 20.684 49.213 21.5C48.973 22.316 48.829 22.964 48.781 23.444C48.685 24.62 48.997 25.208 49.717 25.208C50.389 25.208 51.205 24.488 52.165 23.048L52.597 23.552C51.445 25.184 50.305 26 49.177 26ZM60.208 12.068C59.392 12.068 58.984 11.672 58.984 10.88C58.984 10.088 59.368 9.692 60.136 9.692C60.952 9.692 61.36 10.088 61.36 10.88C61.36 11.672 60.976 12.068 60.208 12.068ZM55.312 26C54.616 26 54.268 25.652 54.268 24.956C54.268 24.524 54.412 23.936 54.7 23.192C55.324 21.656 55.912 20.24 56.464 18.944C57.016 17.648 57.532 16.472 58.012 15.416C58.084 15.296 58.12 15.164 58.12 15.02C58.12 14.684 57.964 14.324 57.652 13.94L59.632 13.904C60.304 13.904 60.64 14.072 60.64 14.408C60.64 14.504 60.616 14.612 60.568 14.732C60.52 14.828 60.46 14.972 60.388 15.164L57.076 22.832C56.74 23.624 56.572 24.296 56.572 24.848C56.572 25.424 56.752 25.808 57.112 26H55.312ZM64.2235 26.144C63.0235 26.144 62.0995 25.784 61.4515 25.064C60.9235 24.464 60.6595 23.744 60.6595 22.904C60.6595 21.68 61.0435 21.068 61.8115 21.068C62.0995 21.068 62.3635 21.176 62.6035 21.392C62.8435 21.632 62.9635 21.908 62.9635 22.22C62.9635 22.412 62.9155 22.568 62.8195 22.688C62.5075 23.072 62.3515 23.492 62.3515 23.948C62.3515 24.404 62.4955 24.776 62.7835 25.064C63.0955 25.376 63.4915 25.532 63.9715 25.532C64.4755 25.532 64.9315 25.364 65.3395 25.028C65.8915 24.524 66.1675 23.828 66.1675 22.94C66.1675 22.172 65.9635 21.308 65.5555 20.348C65.3875 20.108 65.1835 19.796 64.9435 19.412C64.7275 19.028 64.4755 18.572 64.1875 18.044C64.0195 17.756 63.8995 17.468 63.8275 17.18C63.7795 16.868 63.7555 16.568 63.7555 16.28C63.7555 15.272 64.1275 14.468 64.8715 13.868C65.6395 13.244 66.6235 12.932 67.8235 12.932C68.1595 12.932 68.4835 12.968 68.7955 13.04C69.1315 13.112 69.4315 13.244 69.6955 13.436C70.2475 13.844 70.5235 14.348 70.5235 14.948C70.5235 15.212 70.4755 15.452 70.3795 15.668C70.1635 16.292 69.6955 16.604 68.9755 16.604C68.1835 16.604 67.7875 16.196 67.7875 15.38C67.7875 15.14 67.8235 14.936 67.8955 14.768C67.9675 14.528 68.2315 14.288 68.6875 14.048C68.5195 13.736 68.2075 13.58 67.7515 13.58C67.3435 13.58 67.0435 13.676 66.8515 13.868C66.2755 14.372 65.9875 15.008 65.9875 15.776C65.9875 16.304 66.1315 16.88 66.4195 17.504C66.4675 17.6 66.9355 18.356 67.8235 19.772C68.4235 20.732 68.7235 21.536 68.7235 22.184C68.7235 23.216 68.2435 24.128 67.2835 24.92C66.3235 25.736 65.3035 26.144 64.2235 26.144ZM79.5124 26.072C78.9844 26.072 78.5524 25.916 78.2164 25.604C77.7364 25.196 77.4964 24.512 77.4964 23.552C77.4964 22.928 77.6044 22.22 77.8204 21.428C77.0044 22.796 76.1524 23.912 75.2644 24.776C74.3524 25.616 73.5364 26.036 72.8164 26.036C72.1924 26.036 71.7004 25.76 71.3404 25.208C70.9564 24.68 70.7644 23.948 70.7644 23.012C70.7644 20.732 71.7844 18.38 73.8244 15.956C74.1604 15.548 74.5444 15.176 74.9764 14.84C75.4084 14.504 75.8764 14.204 76.3804 13.94C77.4124 13.412 78.4084 13.148 79.3684 13.148C80.5444 13.148 81.4804 13.532 82.1764 14.3C82.3444 14.468 82.4284 14.66 82.4284 14.876C82.4284 15.284 82.2124 15.44 81.7804 15.344C81.5404 14.48 80.9764 14.048 80.0884 14.048C79.0804 14.048 77.8924 14.756 76.5244 16.172C76.0444 16.7 75.5884 17.252 75.1564 17.828C74.7244 18.38 74.3164 18.968 73.9324 19.592C72.9004 21.32 72.3844 22.724 72.3844 23.804C72.3844 24.62 72.6964 25.028 73.3204 25.028C74.0164 25.028 74.8204 24.5 75.7324 23.444C76.2364 22.868 76.7524 22.16 77.2804 21.32C77.8084 20.48 78.3604 19.508 78.9364 18.404C79.1764 17.948 79.3924 17.576 79.5844 17.288C79.7764 17 79.9324 16.784 80.0524 16.64C80.4364 16.256 80.8924 16.076 81.4204 16.1L82.1404 16.208C82.4524 16.28 82.7164 16.292 82.9324 16.244C82.7164 16.46 82.4524 16.808 82.1404 17.288C81.8524 17.744 81.5164 18.344 81.1324 19.088C80.7244 19.88 80.3884 20.6 80.1244 21.248C79.8604 21.896 79.6804 22.472 79.5844 22.976C79.5364 23.216 79.5004 23.444 79.4764 23.66C79.4524 23.852 79.4404 24.032 79.4404 24.2C79.4404 24.824 79.6084 25.136 79.9444 25.136C80.4244 25.136 81.0844 24.608 81.9244 23.552L82.0684 23.372L82.5724 23.696L82.4284 23.912C81.4444 25.352 80.4724 26.072 79.5124 26.072ZM83.5467 26.252C84.0267 25.076 84.6267 23.624 85.3467 21.896C86.0667 20.168 86.9427 18.176 87.9747 15.92C88.1907 15.44 88.3947 15.044 88.5867 14.732C88.7787 14.42 88.9587 14.18 89.1267 14.012C89.4627 13.676 89.8947 13.508 90.4227 13.508C90.4707 13.508 90.5547 13.508 90.6747 13.508C90.7947 13.508 90.9627 13.532 91.1787 13.58C91.5147 13.604 91.7667 13.604 91.9347 13.58C91.0467 14.108 89.7147 16.436 87.9387 20.564C88.2267 20.156 88.6107 19.712 89.0907 19.232C89.5947 18.728 90.1827 18.176 90.8547 17.576C91.2867 17.168 91.7667 16.784 92.2947 16.424C92.8227 16.04 93.3987 15.68 94.0227 15.344C95.4387 14.552 96.4827 14.156 97.1547 14.156C97.3227 14.156 97.4427 14.168 97.5147 14.192C97.1307 14.864 96.7707 15.512 96.4347 16.136C96.1227 16.76 95.8227 17.348 95.5347 17.9C94.1427 20.588 93.3627 22.448 93.1947 23.48C93.1707 23.648 93.1467 23.804 93.1227 23.948C93.1227 24.092 93.1227 24.224 93.1227 24.344C93.1227 24.968 93.3507 25.28 93.8067 25.28C94.5507 25.28 95.4387 24.524 96.4707 23.012L96.9747 23.372C95.7507 25.22 94.5147 26.144 93.2667 26.144C91.7547 26.144 90.9987 25.364 90.9987 23.804C90.9987 22.532 91.7787 20.648 93.3387 18.152C93.5787 17.768 93.6987 17.444 93.6987 17.18C93.6987 16.892 93.5667 16.748 93.3027 16.748C93.0387 16.748 92.6907 16.892 92.2587 17.18C91.8507 17.444 91.3587 17.84 90.7827 18.368C89.8707 19.208 89.0187 20.216 88.2267 21.392C87.4347 22.544 86.7147 23.864 86.0667 25.352C85.9227 25.712 85.5507 25.928 84.9507 26C84.1827 26.072 83.7147 26.156 83.5467 26.252Z" fill="#023E8A"/>
</svg>
