<svg width="33" height="30" viewBox="0 0 33 30" fill="none" xmlns="http://www.w3.org/2000/svg">
<path d="M18.7504 11.75C17.9254 11.75 17.2861 12.3893 17.2861 13.1786C17.2861 13.9679 17.9254 14.6072 18.7504 14.6072C19.504 14.6072 20.1432 13.9679 20.1432 13.1786C20.1432 12.3893 19.504 11.75 18.7504 11.75ZM8.75039 11.75C7.92539 11.75 7.2861 12.3893 7.2861 13.1786C7.2861 13.9679 7.92539 14.6072 8.75039 14.6072C9.50396 14.6072 10.1432 13.9679 10.1432 13.1786C10.1432 12.3893 9.50396 11.75 8.75039 11.75Z" fill="#023E8A"/>
<path d="M30.2137 9.03297C28.5613 6.75848 26.1787 5.11965 23.4637 4.39011V4.39368C22.853 3.71511 22.1637 3.09011 21.3922 2.53297C15.5458 -1.71703 7.33867 -0.420601 3.07081 5.42583C-0.368473 10.1758 -0.222045 16.5651 3.2851 21.1044L3.31367 25.8401C3.31367 25.9544 3.33153 26.0687 3.36724 26.1758C3.41216 26.3189 3.48486 26.4518 3.58118 26.5668C3.67749 26.6818 3.79553 26.7767 3.92855 26.846C4.06157 26.9153 4.20695 26.9577 4.35637 26.9708C4.5058 26.9839 4.65634 26.9674 4.79938 26.9223L9.32081 25.4973C10.5172 25.9223 11.753 26.1651 12.9815 26.233L12.9637 26.2473C16.1458 28.5651 20.3172 29.2615 24.1422 27.9973L28.6815 29.4758C28.7958 29.5115 28.9137 29.533 29.0351 29.533C29.6672 29.533 30.178 29.0223 30.178 28.3901V23.6044C33.3244 19.333 33.4065 13.4294 30.2137 9.03297ZM9.82081 22.9615L9.39224 22.783L5.85653 23.8901L5.82081 20.1758L5.5351 19.8544C2.51367 16.1687 2.31367 10.858 5.14224 6.96154C8.5851 2.24011 15.1851 1.19726 19.8922 4.6044C24.6137 8.03654 25.6601 14.6258 22.2494 19.3187C19.3887 23.2437 14.2672 24.6937 9.82081 22.9615ZM27.8565 22.3544L27.5708 22.7115L27.6065 26.4258L24.1065 25.2473L23.678 25.4258C21.678 26.1687 19.5458 26.2294 17.5708 25.6758L17.5637 25.6723C20.2781 24.8398 22.6491 23.1493 24.3208 20.8544C27.0494 17.0937 27.4922 12.3687 25.9065 8.34011L25.928 8.3544C26.7494 8.94368 27.503 9.6794 28.1422 10.5687C30.7351 14.1258 30.5887 18.9687 27.8565 22.3544Z" fill="#023E8A"/>
<path d="M13.7504 11.75C12.9254 11.75 12.2861 12.3893 12.2861 13.1786C12.2861 13.9679 12.9254 14.6072 13.7504 14.6072C14.504 14.6072 15.1432 13.9679 15.1432 13.1786C15.1432 12.3893 14.504 11.75 13.7504 11.75Z" fill="#023E8A"/>
</svg>
