<svg width="35" height="30" viewBox="0 0 35 30" fill="none" xmlns="http://www.w3.org/2000/svg">
<path d="M34.2756 14.7542L18.3732 0.328544C18.2587 0.224397 18.1227 0.14177 17.973 0.0853942C17.8233 0.0290184 17.6628 0 17.5007 0C17.3386 0 17.1781 0.0290184 17.0284 0.0853942C16.8787 0.14177 16.7427 0.224397 16.6282 0.328544L0.725819 14.7542C0.26253 15.1748 0 15.7461 0 16.3419C0 17.5791 1.10803 18.5849 2.47087 18.5849H4.14643V28.8785C4.14643 29.4988 4.69852 30 5.38187 30H15.0299V22.1493H19.3539V30H29.6196C30.3029 30 30.855 29.4988 30.855 28.8785V18.5849H32.5306C33.1869 18.5849 33.8162 18.3501 34.2795 17.926C35.2408 17.0498 35.2408 15.6304 34.2756 14.7542V14.7542Z" fill="#023E8A"/>
</svg>
