<svg width="35" height="30" viewBox="0 0 35 30" fill="none" xmlns="http://www.w3.org/2000/svg">
<path d="M17.5325 1.25521C17.534 1.25575 17.5351 1.25623 17.5359 1.2566L33.4354 15.6797C33.8547 16.0603 33.8544 16.6222 33.4375 17.0022L33.4355 17.004C33.2172 17.2038 32.8947 17.3349 32.5306 17.3349H30.855H29.605V18.5849V28.75H20.6039V22.1493V20.8993H19.3539H15.0299H13.7799V22.1493V28.75H5.39643V18.5849V17.3349H4.14643H2.47087C1.68186 17.3349 1.25 16.7777 1.25 16.3419C1.25 16.121 1.34664 15.8789 1.56601 15.6797L17.4656 1.2566C17.4664 1.25623 17.4675 1.25575 17.4689 1.25521C17.4759 1.25256 17.4871 1.25 17.5007 1.25C17.5144 1.25 17.5255 1.25256 17.5325 1.25521ZM17.4693 1.25325C17.469 1.25351 17.4687 1.25377 17.4685 1.254L17.4693 1.25325Z" stroke="#262626" stroke-width="2.5"/>
</svg>
