<svg width="30" height="30" viewBox="0 0 30 30" fill="none" xmlns="http://www.w3.org/2000/svg">
<path fill-rule="evenodd" clip-rule="evenodd" d="M21.5595 1H8.43468C3.86556 1 1 4.23789 1 8.82009V21.1799C1 25.7621 3.85342 29 8.43468 29H21.5519C26.1408 29 28.9927 25.7621 28.9927 21.1799V8.82009C28.9987 4.23789 26.1453 1 21.5595 1Z" stroke="#37334A" stroke-width="1.5" stroke-linecap="round" stroke-linejoin="round"/>
<path fill-rule="evenodd" clip-rule="evenodd" d="M13.065 10.1572C13.065 11.7048 11.812 12.9581 10.2647 12.9581C8.71889 12.9581 7.46436 11.7048 7.46436 10.1572C7.46436 8.60953 8.71889 7.35625 10.2647 7.35625C11.8105 7.35776 13.0635 8.61104 13.065 10.1572Z" stroke="#37334A" stroke-width="1.5" stroke-linecap="round" stroke-linejoin="round"/>
<path fill-rule="evenodd" clip-rule="evenodd" d="M28.9998 19.5127C27.5997 18.0712 24.907 15.1596 21.9793 15.1596C19.05 15.1596 17.3616 21.5822 14.5446 21.5822C11.7276 21.5822 9.16847 18.6782 6.91121 20.5399C4.65396 22.4001 3.75827 23.5549 2.51807 26.2039" fill="#37334A"/>
<path d="M28.9998 19.5127C27.5997 18.0712 24.907 15.1596 21.9793 15.1596C19.05 15.1596 17.3616 21.5822 14.5446 21.5822C11.7276 21.5822 9.16847 18.6782 6.91121 20.5399C4.65396 22.4001 3.75827 23.5549 2.51807 26.2039L5.5 28.5L8.5 29H14H22.5L26.5 27.5L28.5 24L28.9998 19.5127Z" fill="#37334A"/>
<path d="M28.9998 19.5127C27.5997 18.0712 24.907 15.1596 21.9793 15.1596C19.05 15.1596 17.3616 21.5822 14.5446 21.5822C11.7276 21.5822 9.16847 18.6782 6.91121 20.5399C4.65396 22.4001 3.75827 23.5549 2.51807 26.2039L5.5 28.5L8.5 29H14H22.5L26.5 27.5L28.5 24L28.9998 19.5127Z" stroke="#37334A" stroke-linecap="round" stroke-linejoin="round"/>
</svg>
