<svg width="84" height="70" viewBox="0 0 84 70" fill="none" xmlns="http://www.w3.org/2000/svg">
<path d="M7.06219 69.04C5.51552 69.04 4.20885 68.72 3.14219 68.08C1.70219 67.28 0.982186 66.0267 0.982186 64.32C0.982186 62.8267 1.46219 61.4933 2.42219 60.32C3.48885 59.0933 4.71552 58.48 6.10219 58.48C7.11552 58.48 7.99552 58.8533 8.74219 59.6C9.38219 60.3467 9.70219 61.0933 9.70219 61.84C9.70219 63.1733 9.19552 64.2667 8.18219 65.12C7.32885 65.92 6.36885 66.32 5.30219 66.32C4.28885 66.32 3.40885 65.9467 2.66219 65.2C2.98219 66.3733 4.07552 66.96 5.94219 66.96C8.76885 66.96 12.1289 65.0667 16.0222 61.28C17.4622 59.8933 19.0089 58.2133 20.6622 56.24C22.2622 54.32 23.9422 52.08 25.7022 49.52C26.8755 47.8133 28.0222 46.1333 29.1422 44.48C30.2622 42.7733 31.4089 41.0667 32.5822 39.36C28.6889 33.3867 26.7422 27.76 26.7422 22.48C26.7422 19.44 27.4355 16.9867 28.8222 15.12C30.2622 13.2533 32.1022 12.32 34.3422 12.32C38.5022 12.32 42.8489 15.2 47.3822 20.96C52.5022 15.68 57.7289 11.2 63.0622 7.52C70.2089 2.56 76.1022 0.0799952 80.7422 0.0799952C82.6089 0.0799952 83.5422 0.479996 83.5422 1.28C83.5422 1.49333 83.4622 1.76 83.3022 2.08C71.3022 23.5733 64.5822 38.16 63.1422 45.84C63.0355 46.5867 62.9289 47.28 62.8222 47.92C62.7689 48.56 62.7422 49.1467 62.7422 49.68C62.7422 53.04 64.1022 54.72 66.8222 54.72C69.5955 54.72 73.4889 49.4933 78.5022 39.04C78.7155 38.5067 79.0089 38.1867 79.3822 38.08H79.4622C79.6755 38.08 79.7822 38.2667 79.7822 38.64C79.7822 38.96 79.6489 39.3867 79.3822 39.92C77.8889 42.9067 76.6889 45.28 75.7822 47.04C74.9289 48.8 74.3422 49.92 74.0222 50.4C72.5289 52.7467 71.0355 54.48 69.5422 55.6C68.0489 56.72 66.5822 57.28 65.1422 57.28C63.3289 57.28 61.5955 56.5867 59.9422 55.2C57.8622 53.3867 56.7155 50.8533 56.5022 47.6C55.0622 38.8533 51.8889 31.3867 46.9822 25.2C45.2755 27.0133 43.4622 29.12 41.5422 31.52C39.6755 33.92 37.6755 36.6133 35.5422 39.6C37.9955 43.4933 40.7955 47.0933 43.9422 50.4C47.1422 53.7067 50.6889 56.6933 54.5822 59.36C54.9555 59.5733 55.1422 59.84 55.1422 60.16C55.1422 60.5867 54.9822 60.8 54.6622 60.8C54.5022 60.8 54.2622 60.72 53.9422 60.56C52.4489 59.6533 50.9022 58.56 49.3022 57.28C47.7022 56.0533 46.0222 54.6133 44.2622 52.96C42.2889 51.1467 40.4489 49.3067 38.7422 47.44C37.0889 45.52 35.5422 43.5733 34.1022 41.6C30.4755 46.72 27.5955 50.7467 25.4622 53.68C23.3822 56.6133 22.0489 58.4533 21.4622 59.2C17.0889 64.64 13.3289 67.76 10.1822 68.56C9.16885 68.88 8.12885 69.04 7.06219 69.04ZM57.0622 41.92C57.3822 40.5333 57.8355 39.0933 58.4222 37.6C59.0622 36.0533 59.8355 34.48 60.7422 32.88C65.3289 24.72 69.9422 17.2533 74.5822 10.48C75.1155 9.73333 75.3822 9.06667 75.3822 8.48C75.3822 7.78666 74.8755 7.44 73.8622 7.44C70.7689 7.44 66.3689 9.41333 60.6622 13.36C58.3689 14.96 56.2622 16.5867 54.3422 18.24C52.4222 19.84 50.6355 21.4667 48.9822 23.12C52.6089 28.56 55.3022 34.8267 57.0622 41.92ZM34.1022 37.2C36.1822 34.3733 38.1289 31.7867 39.9422 29.44C41.8089 27.0933 43.5689 25.0133 45.2222 23.2C41.8622 19.6267 38.8755 17.84 36.2622 17.84C34.6622 17.84 33.4089 18.56 32.5022 20C31.5422 21.4933 31.0622 23.4133 31.0622 25.76C31.0622 29.44 32.0755 33.2533 34.1022 37.2Z" fill="#023E8A"/>
</svg>
